<svg xmlns="http://www.w3.org/2000/svg" baseProfile="full" version="1.1" style="fill: none;" width="1785px" height="900px"><path style="stroke-width: 15px; stroke-linecap: round; stroke-linejoin: round; stroke: rgb(106, 106, 106); fill: none;" d=""/><path style="stroke-width: 15px; stroke-linecap: round; stroke-linejoin: round; stroke: rgb(74, 74, 74); fill: none;" d=""/><path style="stroke-width: 14px; stroke-linecap: square; stroke-linejoin: round; stroke: rgb(255, 255, 255); fill: none;" d="M750,360 L750,360 L870,360 L855,480 M780,420 L780,420 L810,390 L840,390 M750,240 L750,240 L840,240 L870,330 M780,270 L780,270 L810,300 M705,180 L705,180 L1080,180 L1080,540 L705,540 L705,180 M1035,360 L1035,360 L915,360 L930,480 M1005,420 L1005,420 L975,390 L945,390 M1035,240 L1035,240 L945,240 L915,330 M1005,270 L1005,270 L975,300 M1080,180 L1080,180 L705,180 L705,540 L1080,540 L1080,180 "/></svg>